<?xml version="1.0" encoding="UTF-8" standalone="no"?>
<!-- Created with Inkscape (http://www.inkscape.org/) -->

<svg
   width="570.29388mm"
   height="91.630959mm"
   viewBox="0 0 570.29388 91.630954"
   version="1.1"
   data-id="svg5"
   inkscape:export-filename="/home/ivor/socialProof-elg.png"
   inkscape:export-xdpi="96"
   inkscape:export-ydpi="96"
   inkscape:version="1.1.2 (0a00cf5339, 2022-02-04)"
   sodipodi:docname="foxtail-software-darker.svg"
   xmlns:inkscape="http://www.inkscape.org/namespaces/inkscape"
   xmlns:sodipodi="http://sodipodi.sourceforge.net/DTD/sodipodi-0.dtd"
   xmlns="http://www.w3.org/2000/svg"
   xmlns:svg="http://www.w3.org/2000/svg">
  <sodipodi:namedview
     id="namedview7"
     pagecolor="#ffffff"
     bordercolor="#666666"
     borderopacity="1.0"
     inkscape:pageshadow="2"
     inkscape:pageopacity="0.0"
     inkscape:pagecheckerboard="0"
     inkscape:document-units="mm"
     showgrid="false"
     inkscape:zoom="0.27496365"
     inkscape:cx="447.33186"
     inkscape:cy="240.03173"
     inkscape:window-width="2560"
     inkscape:window-height="1347"
     inkscape:window-x="0"
     inkscape:window-y="359"
     inkscape:window-maximized="0"
     inkscape:current-layer="layer1" />
  <defs
     id="defs2">
    <rect
       x="199.54509"
       y="168.20406"
       width="2387.4814"
       height="276.77454"
       id="rect9954" />
  </defs>
  <g
     inkscape:label="Layer 1"
     inkscape:groupmode="layer"
     id="layer1"
     transform="translate(-123.9263,-147.88105)">
    <path
       style="fill:#ec6d45;fill-opacity:1;stroke-width:0.151863"
       d="m 366.06225,214.35181 c -3.46976,-1.44917 -7.1694,-4.3219 -9.72239,-6.77285 -0.98256,-0.94327 -1.94437,-1.95267 -2.76642,-2.91769 -1.99013,-2.3363 -3.60693,-4.58424 -4.57683,-6.14282 -0.99351,-1.69114 -1.18179,-2.37572 -1.78665,-3.77775 -0.6554,-2.07164 -0.91379,-3.96422 -0.91001,-5.70254 -0.22355,-2.25765 -0.0614,-5.82481 1.09737,-9.33176 0.65499,-1.98229 1.54879,-3.95698 3.63725,-7.07058 0.26871,-0.4006 4.24838,-4.51478 4.24838,-4.3973 0,0.0439 -0.50685,1.05325 -1.12633,2.24303 -2.85525,5.48376 -3.80089,8.86399 -3.79152,13.55294 0.005,2.63563 0.23906,4.46085 0.97652,7.62361 1.06116,4.55098 3.51271,9.48788 6.84735,13.78905 2.32497,2.99886 6.11487,6.90337 8.2559,8.50557 1.33806,1.00131 1.25835,1.08445 -0.38262,0.39909 z m 19.59328,-1.32547 c -0.29234,-0.0333 -1.18073,-0.13453 -1.97422,-0.22491 -7.16926,-0.81657 -14.77805,-4.58215 -20.211,-10.0024 -3.07262,-3.06543 -6.15615,-7.73034 -7.73571,-11.70292 -1.77014,-4.45193 -1.98665,-9.49422 -0.62922,-14.65476 0.61759,-2.34795 1.20273,-3.75227 2.18414,-5.24187 1.62245,-2.46261 2.92145,-3.63207 5.31267,-4.78287 2.39521,-1.15272 3.34318,-1.33646 6.95587,-1.34825 3.47899,-0.0114 4.93964,0.2003 8.12467,1.17723 2.12896,0.65301 3.03906,0.75953 4.719,0.55232 1.45233,-0.17914 2.56712,-0.60282 3.3677,-1.27992 0.78887,-0.6672 0.66495,-0.78877 -0.91118,-0.89397 -2.7869,-0.18601 -5.20159,-1.05372 -8.26853,-2.97125 -2.1145,-1.32204 -3.80355,-2.09127 -5.76661,-2.62626 -0.9817,-0.26754 -1.63943,-0.3266 -3.77079,-0.3386 -2.28355,-0.0129 -2.73072,0.0272 -3.8725,0.3469 -2.01787,0.56498 -1.84463,0.5868 -2.33402,-0.29393 -0.4785,-0.86112 -5.40721,-5.98513 -5.57763,-5.79865 -0.20512,0.22446 -0.76663,3.03874 -0.93139,4.66812 -0.14186,1.40307 -0.12827,1.95207 0.0849,3.42943 0.1396,0.96742 0.25381,1.90449 0.25381,2.08237 0,0.17851 -0.38279,0.75131 -0.85428,1.27832 -0.46986,0.52519 -0.92503,1.10864 -1.01149,1.29658 -0.0865,0.18793 -0.20628,0.34169 -0.26626,0.34169 -0.27013,0 -0.83211,-2.0306 -1.07174,-3.87251 -0.44321,-3.40672 0.41302,-8.62402 1.79444,-10.93413 0.73266,-1.2252 1.58778,-2.3541 1.78223,-2.35283 0.0872,5.7e-4 0.32947,0.25637 0.53828,0.56844 0.20881,0.31207 1.90588,2.08933 3.77126,3.94945 l 3.39161,3.38206 1.24021,-0.26435 c 1.50152,-0.32005 4.6649,-0.34752 6.31692,-0.0549 2.17101,0.3846 4.02095,1.15808 6.8017,2.84388 3.93117,2.38322 5.96758,3.05846 9.65088,3.20009 l 2.2427,0.0862 -0.099,0.54733 c -0.30597,1.6912 -1.1184,3.05161 -2.70496,4.52944 -1.87973,1.75091 -4.32765,2.8249 -8.42217,3.69512 -3.401,0.72283 -6.49307,2.43909 -8.00139,4.44118 -0.79586,1.0564 -1.6483,2.73354 -1.89466,3.72768 l -0.16351,0.65981 -0.47241,-0.73574 c -0.67142,-1.04566 -1.62612,-3.27157 -2.48128,-5.78518 -0.40493,-1.19022 -0.79287,-2.16404 -0.86209,-2.16404 -0.15486,0 0.12716,1.88647 0.28041,3.65966 0.21961,2.54095 1.15847,4.26762 2.27209,6.27496 0.23853,0.42995 0.72897,1.32935 1.4349,2.0021 0.46822,0.44621 1.46132,1.44946 1.77793,1.75232 0.85897,0.82167 3.81102,2.66331 5.24128,3.26979 2.42983,1.03034 7.28582,1.87241 10.79419,1.87182 2.81897,-4.5e-4 7.47956,-0.26681 9.39244,-0.53676 6.97261,-0.98396 20.07292,-4.78926 26.40145,-7.66892 3.78761,-1.72347 6.5815,-3.39451 8.7173,-5.21387 3.53527,-3.01148 6.26444,-6.15402 8.60808,-9.91192 1.20738,-1.93595 1.50851,-2.53357 1.82605,-3.62385 0.31385,-1.07759 0.33656,-0.92032 0.13153,0.91118 -0.30814,2.75254 -1.08346,5.92084 -2.15544,8.80804 -0.79206,2.13327 -1.26052,3.06784 -2.6643,5.31521 -4.07871,6.52976 -10.07184,11.84092 -17.65026,15.64183 -2.86573,1.43728 -8.48265,3.25298 -12.68262,4.09974 -3.59036,0.72384 -4.93647,0.87205 -8.58026,0.94465 -9.0018,0.17936 -14.72569,-0.9193 -21.19059,-4.06742 -2.68544,-1.30768 -7.25192,-4.47288 -9.39342,-6.51092 -3.39929,-3.23506 -6.14483,-7.6026 -6.95405,-11.0623 -0.42085,-1.79929 -0.45091,-1.86499 -0.58369,-1.27551 -0.41799,1.85564 -0.27116,5.02714 0.32158,6.94622 0.4537,1.46889 1.58766,3.9276 2.68693,5.8259 1.70495,2.94426 3.3671,4.49877 8.46131,7.91339 5.93191,3.97613 11.84717,6.02367 19.93526,6.90051 2.53271,0.27458 8.98849,0.32772 11.04476,0.0909 5.50747,-0.63425 10.15399,-1.73827 16.8246,-3.99752 l 2.8532,-0.96635 -1.18271,1.20015 c -1.48213,1.50398 -4.59277,4.02005 -6.87758,5.56298 -5.72398,3.86542 -10.38893,5.71381 -17.69559,7.01151 -1.44434,0.25651 -2.56915,0.33234 -5.46349,0.3683 -2.00459,0.0249 -3.8839,0.018 -4.17623,-0.0153 z m -3.79657,-26.11506 c -5.88813,-0.60752 -9.62564,-1.60307 -10.47,-2.78886 l -0.30977,-0.43504 0.4923,0.12937 c 0.27077,0.0711 0.86598,0.23467 1.32269,0.36338 2.18894,0.61689 5.72853,-0.10797 9.33985,-1.91267 1.87107,-0.93503 3.19441,-1.8816 5.92724,-4.23967 4.84301,-4.17886 8.42842,-6.51786 12.98427,-8.47047 2.56675,-1.10008 5.24193,-1.89204 9.33956,-2.76488 6.03293,-1.28507 10.25242,-2.84018 14.50291,-5.34512 2.41214,-1.42154 5.84814,-4.33624 7.74501,-6.56994 0.62643,-0.73768 1.6515,-1.93684 2.27794,-2.6648 1.62208,-1.88499 2.51458,-3.03401 2.95466,-3.80389 0.37801,-0.66128 0.38268,-0.66388 0.38388,-0.21384 0.006,2.25943 -0.5929,7.0304 -1.22621,9.76818 -0.88959,3.84565 -3.04131,8.14021 -5.83431,11.64449 -3.23534,4.05927 -7.86756,7.49063 -12.93418,9.58108 -0.73678,0.30399 -2.02297,0.84262 -2.85822,1.19696 -1.77378,0.7525 -3.56153,1.2928 -7.74501,2.34073 -3.51603,0.88074 -5.86863,1.52175 -9.24606,2.51926 -5.76129,1.70158 -11.11088,2.23688 -16.64655,1.66573 z"
       id="path1246"
       sodipodi:nodetypes="ssscccssssssssssssssssssssssssssssssssssscsscsssscssssscsssssssssssssssssssssssssssssscsssssssscsssssssssscsssssss" />
    <text
       xml:space="preserve"
       transform="matrix(0.26458333,0,0,0.26458333,64.119645,148.5178)"
       id="text9952"
       style="font-style:normal;font-weight:normal;font-size:192px;line-height:1.25;font-family:sans-serif;letter-spacing:23.53px;white-space:pre;shape-inside:url(#rect9954);fill:#ec6d45;fill-opacity:1;stroke:none"><tspan
         x="199.54492"
         y="341.80312"
         id="tspan889"><tspan
           style="font-family:'Fira Mono';-inkscape-font-specification:'Fira Mono'"
           id="tspan887">FOXTAIL SOFTWARE</tspan></tspan></text>
  </g>
</svg>
